<svg height="318pt" preserveAspectRatio="xMidYMid meet" viewBox="0 0 318 318" width="318pt" xmlns="http://www.w3.org/2000/svg"><g transform="matrix(.1 0 0 -.1 0 318)"><path d="m1352 3114c-11-12-8-14 20-13 18 0 26 3 18 6s-17 9-20 13-11 2-18-6z"/><path d="m1445 3105c38-18 78-20 55-4-12 8-12 10-1 7 8-2 15-11 17-20 2-13-3-15-29-7-44 13-47 11-12-8 27-15 28-17 10-24-11-4-27-8-35-8-9 0-8 3 5 8 17 7 17 8-8 15-15 3-27 11-27 16 0 6-10 9-22 9-17-1-19-2-5-6 21-5 23-23 2-23-8 0-24-5-34-11-24-16-72-4-65 16 5 12 0 14-22 11-16-2-21-1-11 1 9 2 17 8 17 11 0 11-83 2-97-10-10-8-13-6-13 6 0 9 5 16 12 16 6 0 8 3 5 7-4 3-21-6-37-22-21-21-33-26-41-18-18 18-109-10-109-34 0-8-4-11-10-8-5 3-10-1-10-10s-5-13-10-10c-6 3-13-2-17-12s-13-24-20-31c-6-7-10-19-7-26 3-8 1-17-5-21-6-3-11 2-11 12 0 13-5 10-18-12-11-17-34-46-53-65-19-18-33-38-31-43 1-4-1-6-5-4-5 3-17-2-28-10-19-15-19-15 5-8s24 7-5-19c-16-14-33-26-36-26-10 0-26-46-45-128-13-57-16-102-12-207 3-74 10-141 16-147 15-19 43-134 36-151-3-8-1-18 5-22 7-3 11 3 12 17 0 22 1 22 9 3 6-15 9-8 9 28 1 30-3 46-9 42-5-3-10-13-10-22s-2-14-5-11c-9 9 6 58 16 52 16-9 10 24-8 41-9 9-12 20-7 23 5 4 10 32 11 62 2 51 1 54-13 35-15-19-15-18-9 10 4 17 13 50 20 75s14 52 14 60c2 38 14 79 22 74 8-4 14 25 10 49 0 4 3 7 7 7 5 0 9 6 9 13 0 8-6 14-14 14-7 0-13-4-13-9 0-4-5-8-10-8-6 0-3 11 6 25s21 25 28 25c6 0 4-4-4-10-8-5-12-11-9-15 6-5 49 28 49 38 0 3-8 3-19 0-17-4-18-1-11 38 5 29 18 52 37 68 15 13 28 28 28 32s4 11 9 16 6 3 2-4c-4-8-2-13 6-13 9 0 9-3-2-10-12-8-12-12-3-18 10-6 7-17-12-42-14-19-25-39-25-44 0-6 5-4 10 4 8 12 10 12 10 1 0-9 6-7 19 7 10 12 23 22 30 22 6 0 2-9-9-20s-20-24-20-30c0-5-6-10-14-10s-18-4-21-10c-4-6 1-7 11-3 13 5 15 3 9-7-18-29 15-3 38 30 13 19 29 34 35 33 6-2 9 4 6 12-4 10 9 30 35 54 22 21 41 44 41 50s8 11 18 11c13 0 14 2 4 9-17 10 6 21 45 21 27 0 83 29 83 43 0 4 33 6 74 4 41-3 80-1 87 4 10 6 8 9-9 9-27 0-22 15 8 23 11 3 18 0 17-7-1-6 12-11 29-12s37-5 44-9c8-5 11-4 7 3-5 7 6 8 33 5 26-4 40-2 40 5 0 8 8 9 24 3 13-6 40-6 61-1 28 6 44 5 61-7 13-8 28-12 33-8 14 8 91-13 91-26 0-5 11-7 26-3 20 5 25 4 19-6-5-8-2-11 10-8 21 4 34 30 14 27-26-3-55 2-41 8 10 4 8 11-9 29-27 29-11 32 19 4 26-25 30-11 5 16-28 31-74 59-120 74-23 7-40 16-38 20s-21 5-51 4c-30-2-52 1-49 5 6 11-46 21-109 20l-51-1zm-225-32c-8-3-22-11-30-17-13-10-13-9-1 7 7 9 21 17 30 16 13 0 14-1 1-6zm23-20c-7-2-19-2-25 0-7 3-2 5 12 5s19-2 13-5zm187-3c0-5-7-10-16-10-8 0-12 5-9 10 3 6 10 10 16 10 5 0 9-4 9-10zm291-18c-13-2-31 3-39 12-14 14-12 14 24 3 33-10 35-13 15-15zm-376-12c4-6-10-10-37-9-40 1-41 2-13 9 43 11 43 11 50 0zm2-26c-3-3-22-6-42-6s-39 3-42 6c-4 3 15 6 42 6s46-3 42-6zm-94-21c-7-2-19-2-25 0-7 3-2 5 12 5s19-2 13-5zm-188-23c-11-5-27-9-35-9-13-1-13 0 0 9 8 5 24 9 35 9h20zm-75-10c-34-11-60-11-35 0 11 5 29 8 40 8 16 0 15-2-5-8zm160-14c0-2-7-7-16-10-8-3-12-2-9 4 6 10 25 14 25 6zm-160-76c-8-5-22-10-30-10-13 0-13 1 0 10 8 5 22 10 30 10 13 0 13-1 0-10zm-20-34c0-3-4-8-10-11-5-3-10-1-10 4 0 6 5 11 10 11 6 0 10-2 10-4z"/><path d="m1325 3080c3-5 1-10-6-10s-10-2-7-5c3-4 18-3 33 1 20 5 23 9 13 15-18 12-41 11-33-1z"/><path d="m1197 2909c7-7 15-10 18-7s-2 9-12 12c-14 6-15 5-6-5z"/><path d="m1068 2853c7-3 16-2 19 1 4 3-2 6-13 5-11 0-14-3-6-6z"/><path d="m864 2795c-10-8-14-15-8-15s17 7 24 15c16 19 9 19-16 0z"/><path d="m1917 2766c-4-10-1-13 9-9 7 3 14 9 14 14 0 14-17 10-23-5z"/><path d="m830 2759c0-5 5-7 10-4 6 3 10 8 10 11 0 2-4 4-10 4-5 0-10-5-10-11z"/><path d="m2130 2746c0-3 9-20 19-38 13-23 16-39 11-53-9-19-9-19-16 3-3 12-11 22-16 22-6 0-7-7-4-16 7-19-10-44-30-44-8 0-17 12-20 26-4 14-10 22-15 17s-5-24 1-43c5-18 7-36 5-39-6-5-4-7-34 39-19 29-22 31-16 10 15-61 17-90 7-90-6 0-15 12-20 28-6 15-11 22-11 16-1-6 6-31 14-54 18-50 19-61 4-40-8 12-9 9-4-10 9-36 27-70 37-70 4 0 9-10 9-22 1-20 2-20 6-4 4 15 7 16 14 5s9-11 9 4c0 9-4 17-9 17-12 0-41 29-41 41 0 5 5 9 10 9 6 0 10-7 10-15 0-14 11-19 37-16 7 1 15-11 19-26 10-47 13-53 26-51 7 2 13-4 14-12 0-8 2-22 2-32 1-9 16-21 33-27 43-15 42-15 35 22-4 23-3 28 4 17 5-8 10-10 11-5 1 6 3 15 4 20 5 34 19 56 41 61 13 3 24 12 24 19s5 15 11 17c16 5-7 55-28 61-11 3-6 5 12 6 26 1 27 3 12 12-9 6-15 14-12 19s-7 22-22 39c-16 17-41 56-57 88-37 72-35 70-46 53-7-11-10-8-15 13-4 15-11 27-16 27s-9-2-9-4z"/><path d="m1927 2703c3-21 9-42 13-46 6-7 6 7 1 76-1 4-5 7-10 7-6 0-7-17-4-37z"/><path d="m844 2654c-18-14-18-15 3-4 17 8 24 7 31-6 8-15 10-14 16 2 4 10 4 15 0 11s-12-2-19 3c-8 6-18 5-31-6z"/><path d="m2191 2243c0-4 4-17 9-28 8-19 9-19 9 2 1 12-3 25-9 28-5 3-10 3-9-2z"/><path d="m781 2204c0-11 3-14 6-6 3 7 2 16-1 19-3 4-6-2-5-13z"/><path d="m815 2211c-3-5-1-12 5-16 5-3 10 1 10 9 0 18-6 21-15 7z"/><path d="m1615 2168c-12-9-35-16-51-15-25 2-29-2-32-25-2-17-9-28-19-28-12 0-13-3-4-14 6-7 9-21 5-30-7-17 20-24 30-7 9 13 56 20 63 8 3-6 1-7-5-3-7 4-12 2-12-3 0-18 26-12 45 9 10 11 24 20 31 20s16-9 19-20c8-25 60-27 86-4 11 10 23 13 31 8 7-5 15-9 18-9 3-1 15-5 28-9 35-12 39 1 9 28-26 24-106 42-167 38-24-2-23-1 8 18 38 23 46 25 36 8-5-9-3-9 9 1 9 7 14 17 11 22s2 9 11 9c11 0 15-5 11-15-3-8-3-15 0-15 11 0 36 31 31 37-4 3-43 6-88 7-64 1-87-2-104-16zm25-53c0-9-60-35-79-35-24 0-18 27 7 33 25 5 72 6 72 2z"/><path d="m1864 2167c-20-12-18-14 27-60 26-26 50-44 53-39 8 13-11 72-30 93s-21 22-50 6z"/><path d="m1225 2140c3-5-10-6-30-3-24 4-35 2-35-7 0-7-8-10-20-7-11 3-20 3-20 0 0-13 31-33 52-34 13 0-6-9-42-20-73-23-104-46-91-68 8-12 15-11 44 7 30 17 38 18 54 7 22-15 83-8 83 11 0 21 22 28 35 11 7-10 22-17 35-17 19 0 21 2 10 15-11 14-8 15 21 13 19-1 37-7 41-13 5-5 8-1 8 10 0 17-6 20-40 20-22 0-45 6-51 12-8 8 1 11 37 11 72 0 82 2 57 12-13 5-23 16-23 25 0 18-12 19-28 3-9-9-15-10-20-2-8 13-85 27-77 14z"/><path d="m2203 2134c-3-8-1-25 4-37 10-21 11-20 17 10 4 17 15 34 24 36 10 3 5 5-11 6-17 1-30-5-34-15z"/><path d="m1015 2110c-3-5-1-10 4-10 6 0 11 5 11 10 0 6-2 10-4 10-3 0-8-4-11-10z"/><path d="m970 2060c0-35 18-39 44-11 22 24 13 41-20 41-20 0-24-5-24-30z"/><path d="m2156 1975c-5-11-10-38-11-60l-3-40 15 28c8 15 13 42 11 60-3 28-4 29-12 12z"/><path d="m2103 1895c-3-9-3-18-1-21 3-3 8 4 11 16 6 23-1 27-10 5z"/><path d="m2151 1844c0-11 3-14 6-6 3 7 2 16-1 19-3 4-6-2-5-13z"/><path d="m2125 1790c-3-5-1-10 4-10 6 0 11 5 11 10 0 6-2 10-4 10-3 0-8-4-11-10z"/><path d="m2101 1754c0-11 3-14 6-6 3 7 2 16-1 19-3 4-6-2-5-13z"/><path d="m1510 1690c-19-17-39-30-45-30-5 0-32 11-59 24-51 25-96 25-76 0 10-11 50-24 77-26 5 0 17-7 28-14 29-21 59-17 83 11 12 14 30 25 39 25 10 0 25 5 33 11 13 9 12 10-2 5-12-3-15-1-11 10 9 25-30 15-67-16z"/><path d="m2095 1570c-3-5-1-10 4-10 6 0 11 5 11 10 0 6-2 10-4 10-3 0-8-4-11-10z"/><path d="m1709 1545c-13-7-27-11-31-9-5 3-8 0-8-5 0-6-7-11-15-11-12 0-35-28-35-43 0-6 73 15 80 23 3 3 14 7 25 8s37 8 58 15c33 12 36 15 22 27-9 7-15 8-15 2 0-7-10-8-28-3-19 6-37 4-53-4z"/><path d="m2081 1523c-1-17-7-23-25-23-29 0-45-22-106-147-41-83-66-112-92-105-11 3-10-5 3-31 9-20 9-21-4-4-14 17-16 17-33 0-16-17-17-16-12 10 8 43-17 33-41-15-24-51-80-119-81-99 0 12-3 12-17-1-22-17-76-41-69-30 3 5-10 4-29-2-18-6-31-14-29-18 8-13-31-9-44 4-6 6-36 12-67 12-30 1-55 5-55 9 0 5-6 7-12 4-14-4-42 15-105 74-23 21-47 39-54 39-6 0-27 14-46 30-18 17-38 30-43 30-6 0-10 9-10 21 0 11-4 17-10 14-5-3-10 1-10 10s-4 13-10 10c-5-3-10-2-10 3s-20 31-45 58-45 52-45 57c0 4-5 5-12 1-7-5-5-11 7-21 11-7 16-13 12-13-9 0 14-37 60-97 17-24 35-53 39-65 4-13 10-25 13-28 4-3 28-49 54-103 26-55 63-115 82-135 19-21 37-45 40-54 4-9 12-15 20-12 7 3 16 1 20-5 10-16 25-13 25 5 0 10 5 14 16 10 9-3 12-2 9 4-7 11 33 49 52 50 6 0 14-6 16-12 4-10 6-10 6 0 1 8 6 10 14 5 14-9 148-13 143-4-2 3 9 6 25 7 26 1 27 0 11-12-15-11-11-13 29-11 26 1 45 5 43 8-2 4 3 12 10 18 12 10 13 8 9-8-4-15-1-21 11-21 9 0 16 4 16 9s18 30 39 57c22 26 39 50 38 53s10 24 24 46c15 22 29 50 33 63 4 12 16 27 27 32 10 6 19 19 19 29s7 24 15 31c12 10 15 10 15 0 0-14 33 25 43 50 3 9 6 10 6 3 2-27 18-11 30 27 14 47 31 44 31-6 0-19 4-33 9-30 12 8 20 56 10 56-5 0-6 7-3 15 12 31 24 13 18-27-3-24-5-60-6-80 0-21-4-38-8-38s-11-7-14-16-2-12 4-9c28 17-30-149-112-323-24-51-47-89-52-85-4 4-6 4-4-2 3-10-89-185-97-185-7 0 7 33 33 75 27 45 22 41-37-28-23-27-38-54-35-60 4-7 4-9 0-5-5 4-13 2-20-3-6-5-44-33-84-61-67-46-73-53-67-77 29-115 33-201 10-229-4-4-88 48-95 59-3 5-30 22-60 39-30 16-50 30-45 30 6 0 4 4-3 9-8 4-14 27-15 51-2 31-7 46-22 54-11 6-22 14-25 17s-28 12-57 19l-52 14-30 82c-16 45-35 118-41 164-6 45-15 92-19 103-5 12-14 63-21 112-7 50-15 94-18 99s-20-20-38-56c-37-73-86-119-174-163-30-15-72-39-93-52s-77-41-125-62c-70-31-321-155-597-294-88-44-85-36-85-254v-193h575 575l1 38c0 20 4 46 9 57 5 12 6-3 3-37-6-57-5-58 19-58s26 5 33 55c3 30 4 59 1 64-10 16-17 152-9 175 8 22 14-18 29-201l7-93h34c28 0 33 4 33 24 0 50-13 147-19 138-3-6-6 19-6 54 0 95 14 43 28-98l11-118h32c23 0 34 5 37 18 4 16 5 16 6 0 1-14 10-18 41-18 33 0 40 3 40 19 0 11 5 23 10 26 6 3 10-5 10-18 0-24 2-25 86-25l86-1-5 47c-3 26-3 38 1 27 4-13 9 6 13 50 6 61 6 58 4-28l-2-97h38c33 0 38 3 42 28l4 27 2-27c1-24 5-28 31-28 24 0 30 4 31 23 1 21 1 21 10-3 6-16 7 10 5 75-3 55-1 91 3 80 5-13 11 10 15 70 4 50 12 108 16 130 10 44 10 49-10-200-5-66-10-132-10-147v-28h660 660v459 459l-72 12c-139 22-254 47-373 82-66 20-149 41-185 48-36 6-85 21-110 33-40 18-136 108-251 233-19 21-48 50-64 63-24 19-29 30-27 60 1 20-2 50-7 66-8 25-9 26-10 8zm-976-772c-8-102 1-195 18-184 7 4 8 0 4-11-4-10-7-27-8-39-2-40-28 97-29 149 0 61 11 174 17 174 3 0 2-40-2-89zm972 47c-3-8-6-5-6 6-1 11 2 17 5 13 3-3 4-12 1-19zm-950-40c-3-8-6-5-6 6-1 11 2 17 5 13 3-3 4-12 1-19zm874-145c-12-20-14-14-5 12 4 9 9 14 11 11 3-2 0-13-6-23zm-35-80c-14-26-25-45-26-41 0 12 43 98 48 94 2-2-8-26-22-53zm-778 2c-3-3-9 2-12 12-6 14-5 15 5 6 7-7 10-15 7-18zm829-37c-3-8-6-5-6 6-1 11 2 17 5 13 3-3 4-12 1-19zm-180-65c-3-10-5-2-5 17s2 27 5 18c2-10 2-26 0-35zm158 5c-3-30-3-30-15-23-7 4-7 13 0 26 14 25 18 24 15-3zm-330-103c1-38 0-52-2-30-4 29-7 35-12 22-4-10-7 13-7 53 0 91 16 56 21-45zm85 50c0-37-4-65-10-65-5 0-10 8-10 19 0 10-3 39-6 65-6 38-4 46 10 46 13 0 16-11 16-65zm224 9c3-8 2-12-4-9s-10 10-10 16c0 14 7 11 14-7zm-6-50c10 6-9-248-19-254-4-3-9-23-12-45-2-22-4 0-5 50s1 122 5 160c6 59 8 65 15 40 5-20 6-10 3 30-2 33-1 50 2 37 2-12 7-20 11-18zm-691-46c-3-8-6-5-6 6-1 11 2 17 5 13 3-3 4-12 1-19zm-120-60c-3-8-6-5-6 6-1 11 2 17 5 13 3-3 4-12 1-19zm540-20c-3-8-6-5-6 6-1 11 2 17 5 13 3-3 4-12 1-19zm-540-76c-2-15-4-2-4 28s2 43 4 28c2-16 2-40 0-56zm333-56c0-6-5-5-11 1-7 7-13 33-15 60l-3 48 14-50c8-27 14-54 15-59zm287 67c-3-10-5-4-5 12 0 17 2 24 5 18 2-7 2-21 0-30zm-20-65c-2-13-4-5-4 17-1 22 1 32 4 23 2-10 2-28 0-40zm-147-13c0-31-32-50-60-35-19 10-27 40-13 53 3 4 21 7 40 7 28 0 33-3 33-25z"/><path d="m1731 424c0-11 3-14 6-6 3 7 2 16-1 19-3 4-6-2-5-13z"/><path d="m1942 140c0-19 2-27 5-17 2 9 2 25 0 35-3 9-5 1-5-18z"/><path d="m1558 83c7-3 16-2 19 1 4 3-2 6-13 5-11 0-14-3-6-6z"/><path d="m1558 63c6-2 18-2 25 0 6 3 1 5-13 5s-19-2-12-5z"/><path d="m1220 1518c0-6-8-8-18-6-10 3-24-1-31-9-17-19-6-30 13-14 9 8 27 10 43 7 147-32 147-32 132-8-7 12-15 20-17 18-1-2-20 1-40 6-61 15-82 17-82 6z"/><path d="m2011 1274c0-11 3-14 6-6 3 7 2 16-1 19-3 4-6-2-5-13z"/><path d="m1991 1194c0-11 3-14 6-6 3 7 2 16-1 19-3 4-6-2-5-13z"/><path d="m1660 931c0-5 5-13 10-16 6-3 10-2 10 4 0 5-4 13-10 16-5 3-10 2-10-4z"/><path d="m1695 910c3-5 8-10 11-10 2 0 4 5 4 10 0 6-5 10-11 10-5 0-7-4-4-10z"/><path d="m1310 870c0-5 5-10 11-10 5 0 7 5 4 10-3 6-8 10-11 10-2 0-4-4-4-10z"/><path d="m1725 810c-3-5-1-10 4-10 6 0 11 5 11 10 0 6-2 10-4 10-3 0-8-4-11-10z"/><path d="m1380 775c10-12 10-18 0-30-9-10-9-15-1-15 6 0 11 5 11 10 0 6 5 10 10 10 6 0 10-6 10-14 0-15 3-19 67-78 31-27 43-34 52-25s16 8 31-1c12-7 20-8 20-2 0 5 7 10 15 10s15 4 15 9-7 14-15 21-15 8-15 3c0-8-42-10-82-4-4 1-14 15-23 31-9 17-20 30-26 30s-22 14-36 30c-13 17-29 30-35 30s-5-6 2-15z"/><path d="m1650 740c-11-7-12-10-2-10 7 0 10-4 7-10-3-5 0-10 8-10 15 0 32 29 22 38-3 3-5-1-5-9 0-10-2-11-8-2-5 8-13 9-22 3z"/><path d="m1617 688c-4-12-4-24-2-26 7-8 35 7 35 18 0 6-5 8-12 4-8-5-9-2-5 9 3 10 3 17-2 17s-11-10-14-22z"/></g></svg>